<svg version="1.1" id="Layer_1" xmlns="http://www.w3.org/2000/svg" xmlns:xlink="http://www.w3.org/1999/xlink" x="0px" y="0px"
	 width="100%" viewBox="0 0 750 750" enable-background="new 0 0 750 750" xml:space="preserve">
<path fill="#5D93FD" opacity="1.000000" stroke="none" 
	d="
M493.000000,751.000000 
	C328.666656,751.000000 164.833328,751.000000 1.000000,751.000000 
	C1.000000,501.000000 1.000000,251.000000 1.000000,1.000000 
	C251.000000,1.000000 501.000000,1.000000 751.000000,1.000000 
	C751.000000,251.000000 751.000000,501.000000 751.000000,751.000000 
	C665.166687,751.000000 579.333313,751.000000 493.000000,751.000000 
M286.363373,242.108902 
	C307.239410,254.363419 328.115448,266.617920 349.538147,279.193329 
	C347.723785,280.398621 346.786469,281.068207 345.805450,281.666077 
	C323.043732,295.538452 300.236572,309.337006 277.545319,323.323639 
	C272.894592,326.190308 268.371948,329.417145 264.303741,333.052551 
	C231.202271,362.632477 237.250107,415.245483 276.017212,436.955475 
	C323.983124,463.816956 371.855316,490.845764 419.785004,517.771973 
	C429.072937,522.989746 438.084351,528.901123 447.835785,533.054688 
	C477.046021,545.496460 511.557861,532.088196 524.951050,503.745483 
	C538.540955,474.986450 527.270752,440.860535 499.406860,425.880310 
	C480.923523,415.943237 462.556183,405.789551 444.176086,395.661774 
	C434.870972,390.534454 425.652710,385.249542 415.729889,379.661224 
	C417.887329,378.318146 419.371399,377.347687 420.898560,376.450653 
	C436.412476,367.337738 452.021515,358.382812 467.426331,349.089264 
	C481.366791,340.679138 495.715363,332.748138 508.733551,323.059998 
	C522.846313,312.557251 529.464600,297.209900 529.753235,279.580353 
	C530.120667,257.132355 519.142517,240.766998 501.557007,227.873474 
	C468.368561,203.540009 435.398315,178.909180 402.254303,154.514832 
	C381.599579,139.312759 361.372925,123.427345 339.916565,109.440300 
	C308.497284,88.958603 267.255920,97.134331 244.733276,126.890602 
	C223.009995,155.590805 226.476517,196.337936 253.823196,220.536362 
	C263.297058,228.919556 275.024628,234.755875 286.363373,242.108902 
M236.959351,608.471802 
	C240.665131,620.700562 247.260880,631.125183 256.462463,639.964905 
	C278.702789,661.330505 313.148346,666.064270 340.869293,651.518738 
	C368.241455,637.156311 383.813629,606.435730 378.751404,576.785645 
	C371.636780,535.114197 332.013092,508.376556 290.762054,517.411316 
	C250.008087,526.337219 225.821335,566.756104 236.959351,608.471802 
z"/>
<path fill="#FEFFFF" opacity="1.000000" stroke="none" 
	d="
M286.043091,241.932205 
	C275.024628,234.755875 263.297058,228.919556 253.823196,220.536362 
	C226.476517,196.337936 223.009995,155.590805 244.733276,126.890602 
	C267.255920,97.134331 308.497284,88.958603 339.916565,109.440300 
	C361.372925,123.427345 381.599579,139.312759 402.254303,154.514832 
	C435.398315,178.909180 468.368561,203.540009 501.557007,227.873474 
	C519.142517,240.766998 530.120667,257.132355 529.753235,279.580353 
	C529.464600,297.209900 522.846313,312.557251 508.733551,323.059998 
	C495.715363,332.748138 481.366791,340.679138 467.426331,349.089264 
	C452.021515,358.382812 436.412476,367.337738 420.898560,376.450653 
	C419.371399,377.347687 417.887329,378.318146 415.729889,379.661224 
	C425.652710,385.249542 434.870972,390.534454 444.176086,395.661774 
	C462.556183,405.789551 480.923523,415.943237 499.406860,425.880310 
	C527.270752,440.860535 538.540955,474.986450 524.951050,503.745483 
	C511.557861,532.088196 477.046021,545.496460 447.835785,533.054688 
	C438.084351,528.901123 429.072937,522.989746 419.785004,517.771973 
	C371.855316,490.845764 323.983124,463.816956 276.017212,436.955475 
	C237.250107,415.245483 231.202271,362.632477 264.303741,333.052551 
	C268.371948,329.417145 272.894592,326.190308 277.545319,323.323639 
	C300.236572,309.337006 323.043732,295.538452 345.805450,281.666077 
	C346.786469,281.068207 347.723785,280.398621 349.538147,279.193329 
	C328.115448,266.617920 307.239410,254.363419 286.043091,241.932205 
z"/>
<path fill="#FEFEFF" opacity="1.000000" stroke="none" 
	d="
M236.848541,608.081970 
	C225.821335,566.756104 250.008087,526.337219 290.762054,517.411316 
	C332.013092,508.376556 371.636780,535.114197 378.751404,576.785645 
	C383.813629,606.435730 368.241455,637.156311 340.869293,651.518738 
	C313.148346,666.064270 278.702789,661.330505 256.462463,639.964905 
	C247.260880,631.125183 240.665131,620.700562 236.848541,608.081970 
z"/>
</svg>